<svg height="512" viewBox="0 0 64 64" width="512" xmlns="http://www.w3.org/2000/svg"><g id="search-research-computer-mouse-keyboard"><path d="m39 24a9 9 0 1 0 -9-9 9.01 9.01 0 0 0 9 9zm0-16a7 7 0 1 1 -7 7 7.008 7.008 0 0 1 7-7z"/><path d="m36 15a3 3 0 0 1 3-3v-2a5.006 5.006 0 0 0 -5 5z"/><path d="m52.849 27.849h2v6h-2z" transform="matrix(.707 -.707 .707 .707 -6.042 47.113)"/><path d="m41 48h-32a5.006 5.006 0 0 0 -5 5v4a5.006 5.006 0 0 0 5 5h32a5.006 5.006 0 0 0 5-5v-4a5.006 5.006 0 0 0 -5-5zm3 9a3 3 0 0 1 -3 3h-32a3 3 0 0 1 -3-3v-4a3 3 0 0 1 3-3h32a3 3 0 0 1 3 3z"/><path d="m58 48.1v-2.1a3.009 3.009 0 0 0 -3-3h-6a1 1 0 0 1 -1-1v-9.93l5.14 5.14a5 5 0 1 0 7.07-7.07l-7.07-7.07a1 1 0 0 0 -1.41 0l-.71.71-1.36-1.36a12.984 12.984 0 0 0 -10.66-20.42h-32a5 5 0 0 0 -5 5v24a5 5 0 0 0 5 5h14v4h-1a3.009 3.009 0 0 0 -3 3v2a1 1 0 0 0 1 1h14a1 1 0 0 0 1-1v-2a3.009 3.009 0 0 0 -3-3h-1v-4h17v6a3.009 3.009 0 0 0 3 3h6a1 1 0 0 1 1 1v2.1a5.017 5.017 0 0 0 -4 4.9v4a5 5 0 0 0 10 0v-4a5.017 5.017 0 0 0 -4-4.9zm-5.56-22.91 6.36 6.37a2.994 2.994 0 0 1 0 4.24 3.075 3.075 0 0 1 -4.24 0l-6.37-6.37zm-48.44-18.19a3.009 3.009 0 0 1 3-3h25.1a12.968 12.968 0 0 0 0 22h-28.1zm26 35a1 1 0 0 1 1 1v1h-12v-1a1 1 0 0 1 1-1zm-7-2v-4h4v4zm23.07-11.27a.961.961 0 0 0 -.07 1.3v3.97h-39a3.009 3.009 0 0 1 -3-3v-3h35a12.929 12.929 0 0 0 6.19-1.57l1.59 1.59zm-7.07-2.73a11 11 0 1 1 11-11 11.007 11.007 0 0 1 -11 11zm9.39-2.03 1.22 1.22-1.42 1.42-1.3-1.3a14.647 14.647 0 0 0 1.5-1.34zm11.61 33.03a3 3 0 0 1 -6 0v-4a3.01 3.01 0 0 1 2-2.82v2.82h2v-2.82a3.01 3.01 0 0 1 2 2.82z"/><path d="m20 56h10v2h-10z"/><path d="m12 52h2v2h-2z"/><path d="m8 52h2v2h-2z"/><path d="m16 52h2v2h-2z"/><path d="m12 56h2v2h-2z"/><path d="m8 56h2v2h-2z"/><path d="m16 56h2v2h-2z"/><path d="m36 56h2v2h-2z"/><path d="m32 56h2v2h-2z"/><path d="m40 56h2v2h-2z"/><path d="m20 52h2v2h-2z"/><path d="m24 52h2v2h-2z"/><path d="m28 52h2v2h-2z"/><path d="m32 52h2v2h-2z"/><path d="m36 52h2v2h-2z"/><path d="m40 52h2v2h-2z"/></g></svg>